<?xml version="1.0" encoding="utf-8"?>
<svg viewBox="136.256 54.362 225.001 141.448" xmlns="http://www.w3.org/2000/svg">
  <g transform="matrix(1.934995, 0, 0, 1.934995, 5.74024, -58.99044)" style="">
    <path class="cls-2" d="M176.68,67.53l-.61-1.05c-.99-1.72-3.19-2.31-4.91-1.32l-37.89,21.95c2.15,1.84,3.65,4.41,4.13,7.32l37.96-21.99c1.72-.99,2.31-3.19,1.32-4.91Z" style="fill: rgb(41, 52, 98);"/>
    <path class="cls-2" d="M79.41,66.12c-1.72-.99-3.92-.4-4.91,1.32l-.61,1.05c-.99,1.72-.4,3.92,1.32,4.91l37.81,22.03c.25-2.98,1.55-5.66,3.55-7.66l-37.15-21.65Z" style="fill: rgb(41, 52, 98);"/>
    <circle class="cls-1" cx="125.17" cy="96.35" r="6.68" style="fill: rgb(249, 7, 22)"/>
    <path class="cls-2" d="M166.25,131.68H84.93c-9.64,0-17.48-7.84-17.48-17.48v-38.14c0-9.64,7.84-17.48,17.48-17.48h81.32c9.64,0,17.48,7.84,17.48,17.48v38.14c0,9.64-7.84,17.48-17.48,17.48ZM84.93,66.85c-5.08,0-9.21,4.13-9.21,9.21v38.14c0,5.08,4.13,9.21,9.21,9.21h81.32c5.08,0,9.21-4.13,9.21-9.21v-38.14c0-5.08-4.13-9.21-9.21-9.21H84.93Z" style="fill: rgb(41, 52, 98);"/>
  </g>
</svg>